HIERARCHY
ROOT Hips
{
	OFFSET -0.001795 -0.223333 0.028219
	CHANNELS 6 Xposition Yposition Zposition Zrotation Yrotation Xrotation 
	JOINT LeftUpLeg
	{
		OFFSET 0.069520 -0.091406 -0.006815
		CHANNELS 3 Zrotation Yrotation Xrotation
		JOINT LeftLeg
		{
			OFFSET 0.034277 -0.375199 -0.004496
			CHANNELS 3 Zrotation Yrotation Xrotation
			JOINT LeftFoot
			{
				OFFSET -0.013596 -0.397961 -0.043693
				CHANNELS 3 Zrotation Yrotation Xrotation
				JOINT LeftToe
				{
					OFFSET 0.026358 -0.055791 0.119288
					CHANNELS 3 Zrotation Yrotation Xrotation
					End Site
					{
						OFFSET 0.000000 0.000000 0.000000
					}
				}
			}
		}
	}
	JOINT RightUpLeg
	{
		OFFSET -0.067670 -0.090522 -0.004320
		CHANNELS 3 Zrotation Yrotation Xrotation
		JOINT RightLeg
		{
			OFFSET -0.038290 -0.382569 -0.008850
			CHANNELS 3 Zrotation Yrotation Xrotation
			JOINT RightFoot
			{
				OFFSET 0.015774 -0.398415 -0.042312
				CHANNELS 3 Zrotation Yrotation Xrotation
				JOINT RightToe
				{
					OFFSET -0.025372 -0.048144 0.123348
					CHANNELS 3 Zrotation Yrotation Xrotation
					End Site
					{
						OFFSET 0.000000 0.000000 0.000000
					}
				}
			}
		}
	}
	JOINT Spine
	{
		OFFSET -0.002533 0.108963 -0.026696
		CHANNELS 3 Zrotation Yrotation Xrotation
		JOINT Spine1
		{
			OFFSET 0.005487 0.135180 0.001092
			CHANNELS 3 Zrotation Yrotation Xrotation
			JOINT Spine2
			{
				OFFSET 0.001457 0.052922 0.025425
				CHANNELS 3 Zrotation Yrotation Xrotation
				JOINT Neck
				{
					OFFSET -0.002778 0.213870 -0.042857
					CHANNELS 3 Zrotation Yrotation Xrotation
					JOINT Head
					{
						OFFSET 0.005152 0.064970 0.051349
						CHANNELS 3 Zrotation Yrotation Xrotation
						End Site
						{
							OFFSET 0.000000 0.000000 0.000000
						}
					}
				}
				JOINT LeftShoulder
				{
					OFFSET 0.078845 0.121749 -0.034090
					CHANNELS 3 Zrotation Yrotation Xrotation
					JOINT LeftArm
					{
						OFFSET 0.090977 0.030469 -0.008868
						CHANNELS 3 Zrotation Yrotation Xrotation
						JOINT LeftForeArm
						{
							OFFSET 0.259612 -0.012772 -0.027456
							CHANNELS 3 Zrotation Yrotation Xrotation
							JOINT LeftHand
							{
								OFFSET 0.249234 0.008986 -0.001171
								CHANNELS 3 Zrotation Yrotation Xrotation
								End Site
								{
									OFFSET 0.000000 0.000000 0.000000
								}
							}
						}
					}
				}
				JOINT RightShoulder
				{
					OFFSET -0.081759 0.118833 -0.038615
					CHANNELS 3 Zrotation Yrotation Xrotation
					JOINT RightArm
					{
						OFFSET -0.096012 0.032551 -0.009143
						CHANNELS 3 Zrotation Yrotation Xrotation
						JOINT RightForeArm
						{
							OFFSET -0.253742 -0.013329 -0.021401
							CHANNELS 3 Zrotation Yrotation Xrotation
							JOINT RightHand
							{
								OFFSET -0.255298 0.007772 -0.005559
								CHANNELS 3 Zrotation Yrotation Xrotation
								End Site
								{
									OFFSET 0.000000 0.000000 0.000000
								}
							}
						}
					}
				}
			}
		}
	}
}
MOTION
Frames: 7
Frame Time: 0.050000
0.000000 0.967498 0.000000 -0.984674 -0.862157 1.286469 2.660739 0.184153 3.212670 -2.223331 0.327388 -5.549437 1.936803 8.090998 13.615908 0.000000 0.000000 0.000000 0.268142 0.058899 -0.650934 0.382107 0.024039 1.735548 -2.659097 -10.095208 11.886486 0.000000 0.000000 0.000000 0.329571 -0.110589 2.416960 2.905190 -0.000160 -26.086267 -2.351485 -0.457915 28.333672 1.559974 0.395217 -24.624526 0.000000 0.000000 0.000000 -4.809861 4.596987 -1.992106 -14.834866 -19.475507 -1.214318 21.221850 -9.226962 -1.174467 0.000000 0.000000 0.000000 -2.677663 -2.924434 -0.838438 19.832034 15.397126 -1.154687 -19.026733 14.091033 -1.546018 0.000000 0.000000 0.000000 
0.000229 0.965832 0.001952 -1.379049 -1.102652 1.740842 2.999548 0.178019 3.358332 -2.382098 0.345226 -6.049968 2.181672 8.182623 12.471869 0.000000 0.000000 0.000000 0.239941 0.066186 -0.721361 0.669987 -0.016896 1.524229 -2.833307 -10.250960 11.012109 0.000000 0.000000 0.000000 0.655013 -0.089087 1.691550 2.664251 0.024154 -25.542027 -1.811069 -0.417606 27.861176 0.403776 1.120255 -25.313564 0.000000 0.000000 0.000000 -7.543427 4.762325 -2.277193 -17.415827 -18.745877 -1.254799 17.386638 -11.083264 -1.092378 0.000000 0.000000 0.000000 -0.824174 -2.739627 -0.908952 22.616627 13.581829 -1.404571 -17.217226 16.629617 -1.657125 0.000000 0.000000 0.000000 
0.000363 0.964011 0.003405 -1.301160 -1.917284 1.688762 3.248564 0.172842 3.307965 -2.421773 0.329384 -4.347364 2.265361 8.103052 11.915764 0.000000 0.000000 0.000000 -0.389599 0.103224 -0.957432 1.217004 -0.062646 2.030088 -2.098259 -8.915082 10.908130 0.000000 0.000000 0.000000 0.893602 -0.103562 1.847112 2.523340 0.089594 -26.403354 -1.982087 0.555417 29.294418 1.521820 0.541301 -25.617982 0.000000 0.000000 0.000000 -9.259568 5.226307 -2.659223 -20.226671 -18.841269 -1.295963 15.332256 -12.770338 -1.060141 0.000000 0.000000 0.000000 1.062601 -3.099548 -1.180701 26.784683 13.068442 -1.655259 -15.988052 18.179519 -1.604313 0.000000 0.000000 0.000000 
0.000439 0.964512 0.004482 -1.263842 -1.717726 1.709625 3.285656 0.166883 3.272956 -2.822285 0.354505 -3.985218 2.666566 8.647933 11.339732 0.000000 0.000000 0.000000 -0.406662 0.058460 -0.486567 1.243366 -0.088062 1.309003 -1.791004 -8.541895 11.779412 0.000000 0.000000 0.000000 0.440876 -0.075399 1.525132 3.095629 -0.026251 -26.539737 -2.419803 -0.420519 30.130389 0.976720 0.765558 -26.674553 0.000000 0.000000 0.000000 -12.261172 6.261148 -3.313444 -24.606108 -18.126514 -1.497813 14.703959 -14.779927 -1.085409 0.000000 0.000000 0.000000 2.918105 -2.158269 -0.987781 30.806170 12.670261 -1.901399 -13.424049 18.576308 -1.291104 0.000000 0.000000 0.000000 
0.000313 0.964588 0.004981 -1.207556 -2.126801 1.564735 3.452272 0.175901 3.428110 -3.144559 0.379632 -3.496127 2.988301 9.165743 11.469082 0.000000 0.000000 0.000000 -0.420111 0.050150 -0.396600 0.871200 -0.046285 1.269395 -1.628829 -8.267718 11.707716 0.000000 0.000000 0.000000 -0.115584 -0.067436 1.707127 3.775552 -0.207803 -26.055342 -2.459980 -0.077976 29.473590 1.713075 0.285909 -25.573657 0.000000 0.000000 0.000000 -14.610562 5.819175 -3.357210 -27.454810 -15.974601 -1.866239 11.803665 -16.019218 -0.809958 0.000000 0.000000 0.000000 5.572503 -1.243646 -0.833555 34.508663 10.694459 -2.441420 -10.365909 20.352429 -0.936147 0.000000 0.000000 0.000000 
0.000139 0.964203 0.004708 -1.020214 -2.075542 1.771301 3.246361 0.138929 2.763929 -3.163473 0.377009 -2.941302 3.535702 9.934743 10.804544 0.000000 0.000000 0.000000 -0.942481 0.094390 -0.721076 1.015775 -0.052905 1.569826 -1.545940 -7.963734 11.212499 0.000000 0.000000 0.000000 -0.301412 -0.055640 1.548422 3.762500 -0.225169 -25.700058 -2.598624 -0.564302 29.611073 2.346135 -0.081843 -26.737835 0.000000 0.000000 0.000000 -16.387521 6.043231 -3.569806 -31.845327 -14.058787 -2.425500 9.505388 -18.107796 -0.532275 0.000000 0.000000 0.000000 7.507433 -0.716340 -0.804203 39.000035 10.048331 -2.836743 -6.966372 21.713075 -0.420339 0.000000 0.000000 0.000000 
-0.000151 0.963561 0.003566 -1.033787 -2.290847 1.837643 3.416361 0.120437 2.543465 -3.407655 0.399837 -2.860331 3.952720 10.629285 10.953916 0.000000 0.000000 0.000000 -0.705512 0.123643 -1.097495 0.531863 0.012354 1.823708 -1.608520 -8.059433 11.033287 0.000000 0.000000 0.000000 -0.420653 -0.073949 2.129631 4.077267 -0.302548 -25.629188 -2.520465 -0.288339 29.391194 2.915747 -0.373779 -26.853372 0.000000 0.000000 0.000000 -19.273007 5.719773 -3.732061 -35.851844 -11.806103 -3.164700 6.725565 -19.715153 -0.105126 0.000000 0.000000 0.000000 10.125515 -0.006188 -0.686029 43.505871 8.247356 -3.642745 -4.579688 23.449970 0.032219 0.000000 0.000000 0.000000 
